<svg xmlns="http://www.w3.org/2000/svg" xmlns:xlink="http://www.w3.org/1999/xlink" xmlns:lucid="lucid" width="125" height="125"><g transform="translate(762.5 -537.4982941667865)" lucid:page-tab-id="0_0"><path d="M-640 648c0 6.63-26.86 12-60 12s-60-5.37-60-12v-96c0-6.63 26.86-12 60-12s60 5.37 60 12z" stroke="#3a414a" stroke-width="5" fill="#fff"/><path d="M-640 552c0 6.63-26.86 12-60 12s-60-5.37-60-12" stroke="#3a414a" stroke-width="5" fill="none"/><use xlink:href="#a" transform="matrix(1,0,0,1,-755,569) translate(7.922222222222217 50.20833333333333)"/><defs><path d="M471-697v74H168v235h246v74H168V0H77v-697h394" id="b"/><path d="M124-637c-34 1-63-28-62-62-1-34 28-63 62-62 33-1 61 29 60 62 1 33-27 63-60 62zm44 89V0H77v-548h91" id="c"/><path d="M168-459c31-60 88-99 177-99v94c-118-7-177 46-177 166V0H77v-548h91v89" id="d"/><path d="M314-557c178 0 281 125 260 317H136c3 101 78 172 178 172 80 1 134-42 154-101h98C538-67 445 11 314 9 145 4 43-103 43-275c0-173 100-282 271-282zm169 243c-2-105-69-163-173-166-97 0-167 70-173 166h346" id="e"/><path d="M168-446c34-61 110-112 205-111 163 6 260 114 260 281S536 2 373 9c-96 1-171-49-205-110V0H77v-740h91v294zm372 170c0-121-69-202-186-202-116 0-186 84-186 203 0 120 70 204 186 204 117 0 186-83 186-205" id="f"/><path d="M43-276c0-167 98-274 260-281 96-2 170 48 204 109v-100h92V0h-92v-102C473-41 398 10 302 9 139 2 43-110 43-276zm464 1c0-121-69-203-186-203s-185 82-185 202c0 121 68 205 185 205s186-83 186-204" id="g"/><path d="M471-149C477 38 162 52 79-72c-19-26-30-56-32-89h94c6 58 61 95 129 93 60 2 112-28 112-81 0-67-63-65-131-88-100-28-193-49-193-167 0-103 92-151 201-153 116-2 203 64 207 172h-91c-4-59-52-95-119-95-76 0-144 66-90 120 84 83 303 44 305 211" id="h"/><g id="a"><use transform="matrix(0.022222222222222223,0,0,0.022222222222222223,0,0)" xlink:href="#b"/><use transform="matrix(0.022222222222222223,0,0,0.022222222222222223,11.200000000000001,0)" xlink:href="#c"/><use transform="matrix(0.022222222222222223,0,0,0.022222222222222223,16.666666666666668,0)" xlink:href="#d"/><use transform="matrix(0.022222222222222223,0,0,0.022222222222222223,24.955555555555556,0)" xlink:href="#e"/><use transform="matrix(0.022222222222222223,0,0,0.022222222222222223,38.733333333333334,0)" xlink:href="#f"/><use transform="matrix(0.022222222222222223,0,0,0.022222222222222223,53.75555555555556,0)" xlink:href="#g"/><use transform="matrix(0.022222222222222223,0,0,0.022222222222222223,68.77777777777779,0)" xlink:href="#h"/><use transform="matrix(0.022222222222222223,0,0,0.022222222222222223,80.37777777777778,0)" xlink:href="#e"/></g></defs></g></svg>