<svg xmlns="http://www.w3.org/2000/svg" xmlns:xlink="http://www.w3.org/1999/xlink" xmlns:lucid="lucid" width="132.16" height="152.46"><g transform="translate(-317.5 249.9612919976717)" lucid:page-tab-id="0_0"><path d="M447.16-114.75c0 8.15-28.46 14.75-63.58 14.75-35.1 0-63.58-6.6-63.58-14.75V-232.7c0-8.16 28.47-14.76 63.58-14.76 35.12 0 63.58 6.6 63.58 14.75z" stroke="#3a414a" stroke-width="5" fill="#fff"/><path d="M447.16-232.7c0 8.13-28.46 14.73-63.58 14.73-35.1 0-63.58-6.6-63.58-14.74" stroke="#3a414a" stroke-width="5" fill="none"/><use xlink:href="#a" transform="matrix(1,0,0,1,325,-212.96761559211365) translate(7.920000000000002 44.625)"/><use xlink:href="#b" transform="matrix(1,0,0,1,325,-212.96761559211365) translate(9.830000000000005 74.625)"/><defs><path d="M506-697v74H316V0h-91v-623H34v-74h472" id="c"/><path d="M124-637c-34 1-63-28-62-62-1-34 28-63 62-62 33-1 61 29 60 62 1 33-27 63-60 62zm44 89V0H77v-548h91" id="d"/><path d="M736-558c142 3 222 89 222 235V0h-90v-310c2-103-53-169-150-169-100 1-155 70-155 177V0h-90v-310c2-103-53-169-150-169-100 1-155 70-155 177V0H77v-548h91v79c32-53 93-88 173-89 99 1 171 48 201 122 26-71 101-121 194-122" id="e"/><path d="M314-557c178 0 281 125 260 317H136c3 101 78 172 178 172 80 1 134-42 154-101h98C538-67 445 11 314 9 145 4 43-103 43-275c0-173 100-282 271-282zm169 243c-2-105-69-163-173-166-97 0-167 70-173 166h346" id="f"/><path d="M471-149C477 38 162 52 79-72c-19-26-30-56-32-89h94c6 58 61 95 129 93 60 2 112-28 112-81 0-67-63-65-131-88-100-28-193-49-193-167 0-103 92-151 201-153 116-2 203 64 207 172h-91c-4-59-52-95-119-95-76 0-144 66-90 120 84 83 303 44 305 211" id="g"/><path d="M43-275c0-171 99-277 267-282 137-1 227 73 253 185h-98c-17-64-74-109-155-108-111 1-174 85-174 205 0 121 62 206 174 207 83 0 137-42 155-108h98C536-69 444 10 310 9 141 4 43-103 43-275" id="h"/><path d="M43-276c0-167 98-274 260-281 96-2 170 48 204 109v-100h92V0h-92v-102C473-41 398 10 302 9 139 2 43-110 43-276zm464 1c0-121-69-203-186-203s-185 82-185 202c0 121 68 205 185 205s186-83 186-204" id="i"/><path d="M168-740V0H77v-740h91" id="j"/><g id="a"><use transform="matrix(0.02,0,0,0.02,0,0)" xlink:href="#c"/><use transform="matrix(0.02,0,0,0.02,10.82,0)" xlink:href="#d"/><use transform="matrix(0.02,0,0,0.02,15.74,0)" xlink:href="#e"/><use transform="matrix(0.02,0,0,0.02,36.34,0)" xlink:href="#f"/><use transform="matrix(0.02,0,0,0.02,48.74,0)" xlink:href="#g"/><use transform="matrix(0.02,0,0,0.02,59.18,0)" xlink:href="#h"/><use transform="matrix(0.02,0,0,0.02,71.32,0)" xlink:href="#i"/><use transform="matrix(0.02,0,0,0.02,84.83999999999999,0)" xlink:href="#j"/><use transform="matrix(0.02,0,0,0.02,89.75999999999998,0)" xlink:href="#f"/></g><path d="M294-697c229 3 370 124 370 350S523-3 294 0H77v-697h217zm0 622c176 2 277-99 277-272 1-174-101-278-277-276H168v548h126" id="k"/><path d="M331 0C191 9 97-11 97-150v-323H26v-75h71v-138h91v138h143v75H188v323c-9 82 67 74 143 73V0" id="l"/><path d="M168-446c34-61 110-112 205-111 163 6 260 114 260 281S536 2 373 9c-96 1-171-49-205-110V0H77v-740h91v294zm372 170c0-121-69-202-186-202-116 0-186 84-186 203 0 120 70 204 186 204 117 0 186-83 186-205" id="m"/><g id="b"><use transform="matrix(0.02,0,0,0.02,0,0)" xlink:href="#k"/><use transform="matrix(0.02,0,0,0.02,14.14,0)" xlink:href="#i"/><use transform="matrix(0.02,0,0,0.02,27.66,0)" xlink:href="#l"/><use transform="matrix(0.02,0,0,0.02,34.94,0)" xlink:href="#i"/><use transform="matrix(0.02,0,0,0.02,48.459999999999994,0)" xlink:href="#m"/><use transform="matrix(0.02,0,0,0.02,61.97999999999999,0)" xlink:href="#i"/><use transform="matrix(0.02,0,0,0.02,75.49999999999999,0)" xlink:href="#g"/><use transform="matrix(0.02,0,0,0.02,85.93999999999998,0)" xlink:href="#f"/></g></defs></g></svg>